<svg width="16" height="20" viewBox="0 0 16 20" fill="none" xmlns="http://www.w3.org/2000/svg">
<path d="M13.1243 9.1001H2.59565C1.76496 9.1001 1.09155 9.90599 1.09155 10.9001V17.2001C1.09155 18.1942 1.76496 19.0001 2.59565 19.0001H13.1243C13.955 19.0001 14.6284 18.1942 14.6284 17.2001V10.9001C14.6284 9.90599 13.955 9.1001 13.1243 9.1001Z" stroke="#ABABAB" stroke-width="1.5" stroke-linecap="round" stroke-linejoin="round"/>
<path d="M4.09998 9.1V5.5C4.09998 4.30653 4.49614 3.16193 5.20133 2.31802C5.90651 1.47411 6.86294 1 7.86022 1C8.8575 1 9.81394 1.47411 10.5191 2.31802C11.2243 3.16193 11.6205 4.30653 11.6205 5.5V9.1" stroke="#ABABAB" stroke-width="1.5" stroke-linecap="round" stroke-linejoin="round"/>
</svg>
