<svg width="26" height="24" viewBox="0 0 26 24" fill="none" xmlns="http://www.w3.org/2000/svg">
<path d="M11.5 5C11.5 4.46957 11.7107 3.96086 12.0858 3.58579C12.4609 3.21071 12.9696 3 13.5 3C14.0304 3 14.5391 3.21071 14.9142 3.58579C15.2893 3.96086 15.5 4.46957 15.5 5C16.6484 5.54303 17.6274 6.38833 18.3321 7.4453C19.0367 8.50227 19.4404 9.73107 19.5 11V14C19.5753 14.6217 19.7954 15.2171 20.1428 15.7381C20.4902 16.2592 20.9551 16.6914 21.5 17H5.5C6.04494 16.6914 6.50981 16.2592 6.85719 15.7381C7.20457 15.2171 7.42474 14.6217 7.5 14V11C7.55956 9.73107 7.9633 8.50227 8.66795 7.4453C9.3726 6.38833 10.3516 5.54303 11.5 5Z" stroke="#707070" stroke-width="1.5" stroke-linecap="round" stroke-linejoin="round"/>
<path d="M10.5 17V18C10.5 18.7956 10.8161 19.5587 11.3787 20.1213C11.9413 20.6839 12.7044 21 13.5 21C14.2956 21 15.0587 20.6839 15.6213 20.1213C16.1839 19.5587 16.5 18.7956 16.5 18V17" stroke="#707070" stroke-width="1.5" stroke-linecap="round" stroke-linejoin="round"/>
</svg>
