<svg width="31" height="30" viewBox="0 0 31 30" fill="none" xmlns="http://www.w3.org/2000/svg">
<path d="M18.275 27.0374C16.8 27.0374 14.7125 25.9999 13.0625 21.0374L12.1625 18.3374L9.46248 17.4374C4.51248 15.7874 3.47498 13.6999 3.47498 12.2249C3.47498 10.7624 4.51248 8.66241 9.46248 6.99991L20.075 3.46241C22.725 2.57491 24.9375 2.83741 26.3 4.18741C27.6625 5.53741 27.925 7.76241 27.0375 10.4124L23.5 21.0249C21.8375 25.9999 19.75 27.0374 18.275 27.0374ZM10.05 8.78741C6.57498 9.94991 5.33748 11.3249 5.33748 12.2249C5.33748 13.1249 6.57498 14.4999 10.05 15.6499L13.2 16.6999C13.475 16.7874 13.7 17.0124 13.7875 17.2874L14.8375 20.4374C15.9875 23.9124 17.375 25.1499 18.275 25.1499C19.175 25.1499 20.55 23.9124 21.7125 20.4374L25.25 9.82491C25.8875 7.89991 25.775 6.32491 24.9625 5.51241C24.15 4.69991 22.575 4.59991 20.6625 5.23741L10.05 8.78741Z" fill="#FFDF00"/>
<path d="M13.1375 18C12.9 18 12.6625 17.9125 12.475 17.725C12.1125 17.3625 12.1125 16.7625 12.475 16.4L16.95 11.9125C17.3125 11.55 17.9125 11.55 18.275 11.9125C18.6375 12.275 18.6375 12.875 18.275 13.2375L13.8 17.725C13.625 17.9125 13.375 18 13.1375 18Z" fill="#FFDF00"/>
</svg>
