<svg width="24" height="24" viewBox="0 0 24 24" fill="none" xmlns="http://www.w3.org/2000/svg">
<path d="M12.9739 14.4174C12.9739 15.1858 12.351 15.8087 11.5826 15.8087C10.8142 15.8087 10.1913 15.1858 10.1913 14.4174C10.1913 13.649 10.8142 13.0261 11.5826 13.0261C12.351 13.0261 12.9739 13.649 12.9739 14.4174Z" fill="#D9D9D9"/>
<path d="M19.8028 2.80597C19.4122 2.41544 18.7791 2.41544 18.3885 2.80597C17.998 3.19649 17.998 3.82966 18.3885 4.22018L19.0956 3.51307L19.8028 2.80597ZM20.8929 6.72453C21.2834 7.11505 21.9166 7.11505 22.3071 6.72453C22.6976 6.334 22.6976 5.70084 22.3071 5.31032L21.6 6.01742L20.8929 6.72453ZM12.5826 9.68699C12.5826 9.1347 12.1349 8.68699 11.5826 8.68699C11.0303 8.68699 10.5826 9.1347 10.5826 9.68699H11.5826H12.5826ZM10.5826 13.3044C10.5826 13.8567 11.0303 14.3044 11.5826 14.3044C12.1349 14.3044 12.5826 13.8567 12.5826 13.3044H11.5826H10.5826ZM8.79999 0.286987C8.24771 0.286987 7.79999 0.734703 7.79999 1.28699C7.79999 1.83927 8.24771 2.28699 8.79999 2.28699V1.28699V0.286987ZM14.0869 2.28699C14.6392 2.28699 15.0869 1.83927 15.0869 1.28699C15.0869 0.734703 14.6392 0.286987 14.0869 0.286987V1.28699V2.28699ZM17.5538 6.1451C17.1632 6.53562 17.1632 7.16879 17.5538 7.55931C17.9443 7.94984 18.5774 7.94984 18.968 7.55931L18.2609 6.8522L17.5538 6.1451ZM20.3478 4.76525L21.0549 4.05814V4.05814L20.3478 4.76525ZM11.5826 9.68699H10.5826V13.3044H11.5826H12.5826V9.68699H11.5826ZM8.79999 1.28699V2.28699H14.0869V1.28699V0.286987H8.79999V1.28699ZM18.2609 6.8522L18.968 7.55931L21.0549 5.47235L20.3478 4.76525L19.6407 4.05814L17.5538 6.1451L18.2609 6.8522ZM20.7652 13.5305H19.7652C19.7652 18.0496 16.1017 21.7131 11.5826 21.7131V22.7131V23.7131C17.2063 23.7131 21.7652 19.1542 21.7652 13.5305H20.7652ZM11.5826 22.7131V21.7131C7.06347 21.7131 3.39999 18.0496 3.39999 13.5305H2.39999H1.39999C1.39999 19.1542 5.9589 23.7131 11.5826 23.7131V22.7131ZM2.39999 13.5305H3.39999C3.39999 9.01134 7.06347 5.34786 11.5826 5.34786V4.34786V3.34786C5.9589 3.34786 1.39999 7.90677 1.39999 13.5305H2.39999ZM11.5826 4.34786V5.34786C16.1017 5.34786 19.7652 9.01134 19.7652 13.5305H20.7652H21.7652C21.7652 7.90677 17.2063 3.34786 11.5826 3.34786V4.34786ZM12.9739 14.4174H11.9739C11.9739 14.6335 11.7987 14.8087 11.5826 14.8087V15.8087V16.8087C12.9033 16.8087 13.9739 15.7381 13.9739 14.4174H12.9739ZM11.5826 15.8087V14.8087C11.3665 14.8087 11.1913 14.6335 11.1913 14.4174H10.1913H9.1913C9.1913 15.7381 10.2619 16.8087 11.5826 16.8087V15.8087ZM10.1913 14.4174H11.1913C11.1913 14.2013 11.3665 14.0261 11.5826 14.0261V13.0261V12.0261C10.2619 12.0261 9.1913 13.0967 9.1913 14.4174H10.1913ZM11.5826 13.0261V14.0261C11.7987 14.0261 11.9739 14.2013 11.9739 14.4174H12.9739H13.9739C13.9739 13.0967 12.9033 12.0261 11.5826 12.0261V13.0261ZM19.0956 3.51307L18.3885 4.22018L19.6407 5.47235L20.3478 4.76525L21.0549 4.05814L19.8028 2.80597L19.0956 3.51307ZM20.3478 4.76525L19.6407 5.47235L20.8929 6.72453L21.6 6.01742L22.3071 5.31032L21.0549 4.05814L20.3478 4.76525Z" fill="#213693"/>
<path d="M19.8028 2.80597C19.4122 2.41544 18.7791 2.41544 18.3885 2.80597C17.998 3.19649 17.998 3.82966 18.3885 4.22018L19.0956 3.51307L19.8028 2.80597ZM20.8929 6.72453C21.2834 7.11505 21.9166 7.11505 22.3071 6.72453C22.6976 6.334 22.6976 5.70084 22.3071 5.31032L21.6 6.01742L20.8929 6.72453ZM12.5826 9.68699C12.5826 9.1347 12.1349 8.68699 11.5826 8.68699C11.0303 8.68699 10.5826 9.1347 10.5826 9.68699H11.5826H12.5826ZM10.5826 13.3044C10.5826 13.8567 11.0303 14.3044 11.5826 14.3044C12.1349 14.3044 12.5826 13.8567 12.5826 13.3044H11.5826H10.5826ZM8.79999 0.286987C8.24771 0.286987 7.79999 0.734703 7.79999 1.28699C7.79999 1.83927 8.24771 2.28699 8.79999 2.28699V1.28699V0.286987ZM14.0869 2.28699C14.6392 2.28699 15.0869 1.83927 15.0869 1.28699C15.0869 0.734703 14.6392 0.286987 14.0869 0.286987V1.28699V2.28699ZM17.5538 6.1451C17.1632 6.53562 17.1632 7.16879 17.5538 7.55931C17.9443 7.94984 18.5774 7.94984 18.968 7.55931L18.2609 6.8522L17.5538 6.1451ZM20.3478 4.76525L21.0549 4.05814V4.05814L20.3478 4.76525ZM11.5826 9.68699H10.5826V13.3044H11.5826H12.5826V9.68699H11.5826ZM8.79999 1.28699V2.28699H14.0869V1.28699V0.286987H8.79999V1.28699ZM18.2609 6.8522L18.968 7.55931L21.0549 5.47235L20.3478 4.76525L19.6407 4.05814L17.5538 6.1451L18.2609 6.8522ZM20.7652 13.5305H19.7652C19.7652 18.0496 16.1017 21.7131 11.5826 21.7131V22.7131V23.7131C17.2063 23.7131 21.7652 19.1542 21.7652 13.5305H20.7652ZM11.5826 22.7131V21.7131C7.06347 21.7131 3.39999 18.0496 3.39999 13.5305H2.39999H1.39999C1.39999 19.1542 5.9589 23.7131 11.5826 23.7131V22.7131ZM2.39999 13.5305H3.39999C3.39999 9.01134 7.06347 5.34786 11.5826 5.34786V4.34786V3.34786C5.9589 3.34786 1.39999 7.90677 1.39999 13.5305H2.39999ZM11.5826 4.34786V5.34786C16.1017 5.34786 19.7652 9.01134 19.7652 13.5305H20.7652H21.7652C21.7652 7.90677 17.2063 3.34786 11.5826 3.34786V4.34786ZM12.9739 14.4174H11.9739C11.9739 14.6335 11.7987 14.8087 11.5826 14.8087V15.8087V16.8087C12.9033 16.8087 13.9739 15.7381 13.9739 14.4174H12.9739ZM11.5826 15.8087V14.8087C11.3665 14.8087 11.1913 14.6335 11.1913 14.4174H10.1913H9.1913C9.1913 15.7381 10.2619 16.8087 11.5826 16.8087V15.8087ZM10.1913 14.4174H11.1913C11.1913 14.2013 11.3665 14.0261 11.5826 14.0261V13.0261V12.0261C10.2619 12.0261 9.1913 13.0967 9.1913 14.4174H10.1913ZM11.5826 13.0261V14.0261C11.7987 14.0261 11.9739 14.2013 11.9739 14.4174H12.9739H13.9739C13.9739 13.0967 12.9033 12.0261 11.5826 12.0261V13.0261ZM19.0956 3.51307L18.3885 4.22018L19.6407 5.47235L20.3478 4.76525L21.0549 4.05814L19.8028 2.80597L19.0956 3.51307ZM20.3478 4.76525L19.6407 5.47235L20.8929 6.72453L21.6 6.01742L22.3071 5.31032L21.0549 4.05814L20.3478 4.76525Z" fill="black" fill-opacity="0.2"/>
</svg>
