<svg width="16" height="16" viewBox="0 0 16 16" fill="none" xmlns="http://www.w3.org/2000/svg">
<path d="M7.89313 7.03922C9.76219 7.03922 11.2774 5.68729 11.2774 4.01961C11.2774 2.35192 9.76219 1 7.89313 1C6.02408 1 4.50891 2.35192 4.50891 4.01961C4.50891 5.68729 6.02408 7.03922 7.89313 7.03922Z" stroke="#ABABAB" stroke-width="1.5" stroke-linecap="round"/>
<path d="M14.6609 15.0001C14.6734 14.2311 14.5069 13.4678 14.1712 12.7553C13.8355 12.0427 13.3375 11.3954 12.7065 10.8516C12.0756 10.3078 11.3245 9.87861 10.4978 9.58931C9.67098 9.30001 8.78531 9.15652 7.89308 9.16732C7.00086 9.15652 6.11518 9.30001 5.28841 9.58931C4.46165 9.87861 3.71058 10.3078 3.07962 10.8516C2.44866 11.3954 1.95061 12.0427 1.61494 12.7553C1.27926 13.4678 1.11276 14.2311 1.12529 15.0001H14.6609Z" stroke="#ABABAB" stroke-width="1.5" stroke-linecap="round"/>
</svg>
